<?xml version="1.0" encoding="UTF-8"?>
<svg width="18px" height="18px" viewBox="0 0 18 18" version="1.1" xmlns="http://www.w3.org/2000/svg" xmlns:xlink="http://www.w3.org/1999/xlink">
    <title>语音播报</title>
    <g id="页面-3" stroke="none" stroke-width="1" fill="none" fill-rule="evenodd">
        <g id="视频会商备份" transform="translate(-341.000000, -397.000000)">
            <g id="编组-12" transform="translate(325.000000, 103.000000)">
                <g id="语音播报" transform="translate(16.000000, 294.000000)">
                    <rect id="矩形" fill="#D8D8D8" opacity="0" x="0" y="0" width="18" height="18"></rect>
                    <path d="M9.00022194,12.6001599 C10.0610863,12.6001599 11.0785407,12.2210532 11.8287268,11.5459557 C12.5789128,10.8708582 13.0003699,9.95518449 13.0003699,9.00039948 L13.0003699,3.6001598 C13.0003699,1.61184644 11.2094426,0 9.00022194,0 C6.79100122,0 5.00007395,1.61184644 5.00007395,3.6001598 L5.00007395,9.00039948 C4.9999562,9.95521698 5.4213755,10.8709522 6.17158706,11.5460727 C6.92179862,12.2211932 7.93932147,12.6003717 9.00022194,12.6001599 L9.00022194,12.6001599 Z M7.00014796,3.6001598 L10.999852,3.6001598 L10.999852,4.50019975 L7.00014796,4.50019975 L7.00014796,3.6001598 L7.00014796,3.6001598 Z M7.00014796,5.4002397 L10.999852,5.4002397 L10.999852,6.30027963 L7.00014796,6.30027963 L7.00014796,5.4002397 L7.00014796,5.4002397 Z M7.00014796,7.20031958 L10.999852,7.20031958 L10.999852,8.09996004 L7.00014796,8.09996004 L7.00014796,7.20031958 L7.00014796,7.20031958 Z M15,9.00039948 L15,7.20031958 L13.9995191,7.20031958 L13.9995191,9.00039948 C13.9995191,11.4859958 11.7615314,13.5005992 8.99977806,13.5005992 C6.23846866,13.5005992 4.00003699,11.4859958 4.00003699,9.00039948 L4.00003699,7.20031958 L3,7.20031958 L3,9.00039948 C3,11.6741533 5.49809507,13.8789116 8.3335306,14.3095566 L8.3335306,17.1003595 L3,17.1003595 L3,18 L15,18 L15,17.1003595 L9.66691327,17.1003595 L9.66691327,14.3095566 C12.5019049,13.8789116 15,11.6745528 15,9.00039948 Z" id="形状" fill="#D2CFCA" fill-rule="nonzero"></path>
                </g>
            </g>
        </g>
    </g>
</svg>