<?xml version="1.0" encoding="UTF-8"?>
<svg width="18px" height="18px" viewBox="0 0 18 18" version="1.1" xmlns="http://www.w3.org/2000/svg" xmlns:xlink="http://www.w3.org/1999/xlink">
    <title>音量 (1)</title>
    <g id="页面-3" stroke="none" stroke-width="1" fill="none" fill-rule="evenodd">
        <g id="视频会商备份" transform="translate(-756.000000, -397.000000)">
            <g id="编组-12" transform="translate(325.000000, 103.000000)">
                <g id="音量-(1)" transform="translate(431.000000, 294.000000)">
                    <rect id="矩形" fill="#D8D8D8" opacity="0" x="0" y="0" width="18" height="18"></rect>
                    <path d="M13.0947501,0.9 C13.2160759,0.9 13.3277801,0.941190035 13.4170037,1.00982781 L13.4170037,1.00982781 C15.6527447,2.94132554 17.0658441,5.79705094 17.0658441,8.98294045 C17.0658441,12.1633294 15.6575646,15.0149155 13.430562,16.9477746 L13.430562,16.9477746 C13.3380638,17.0212139 13.2215396,17.0658257 13.0947686,17.0658257 C12.8035685,17.0658257 12.5675951,16.8297235 12.5675951,16.538689 C12.5675951,16.4117156 12.6123908,16.295357 12.6870443,16.2044225 L12.6870443,16.2044225 C12.6938878,16.1910114 12.704889,16.1817395 12.7156878,16.1721548 C12.7367888,16.1505204 12.7597845,16.1303025 12.7843256,16.1124394 C14.7628451,14.3738118 16.0115523,11.823875 16.0115523,8.98292206 C16.0115523,6.14195074 14.7628451,3.59201391 12.7843256,1.85338634 C12.7597845,1.83554162 12.7367888,1.81528695 12.7156878,1.79367092 L12.7156878,1.79367092 L12.6714256,1.75557152 C12.6086011,1.66051618 12.5675951,1.54862796 12.5675951,1.4271367 C12.5675951,1.1361022 12.8035501,0.9 13.0947501,0.9 Z M9.33437104,2.30574076 C9.72252129,2.30574076 10.0372322,2.62045172 10.0372322,3.00860196 C10.0372322,3.04085123 10.0349879,3.07243823 10.030867,3.10332615 L10.030867,3.10332615 L10.030867,14.862518 C10.0349879,14.8934059 10.0372322,14.9249929 10.0372322,14.9572606 C10.0372322,15.3453924 9.72252128,15.6601033 9.33437104,15.6601033 C9.16035742,15.6601033 9.00095073,15.5969662 8.87826368,15.4919399 L8.87826368,15.4919399 L3.71471935,12.1485385 L3.71471935,12.145779 L1.60269562,12.145779 C1.21471094,12.145779 0.9,11.8321167 0.9,11.4446655 L0.9,11.4446655 L0.9,6.52119701 C0.9,6.13372745 1.21178589,5.82004672 1.60269562,5.82004672 L1.60269562,5.82004672 L3.73256407,5.82039625 L8.90861812,2.44919759 C9.02685318,2.35927492 9.17444924,2.30574076 9.33437104,2.30574076 Z M12.3215035,4.94147943 C12.4397385,4.94147943 12.5490512,4.98059064 12.6368951,5.04613779 L12.6368951,5.04613779 C13.6390325,6.05614892 14.2543809,7.44746673 14.2543809,8.98292206 C14.2543809,10.5166481 13.6404122,11.9069357 12.6448056,12.9214172 L12.6448056,12.9214172 C12.5519763,12.9845544 12.4414678,13.0243831 12.3215035,13.0243831 C12.0303034,13.0243831 11.7943484,12.7882809 11.7943484,12.4972464 C11.7943484,12.3774844 11.8343426,12.2666264 11.9017846,12.1780651 L11.9017846,12.1780651 L11.8991907,12.1756551 L11.9376396,12.1358448 L11.9376396,12.1358448 C12.7214827,11.3118419 13.2000707,10.2033353 13.2000707,8.98294045 C13.2000707,7.7625456 12.7214827,6.6540206 11.941926,5.83446966 C11.9403807,5.83308992 11.939001,5.83137904 11.9376396,5.82999929 C11.9239158,5.81557634 11.9100079,5.80117179 11.8961001,5.78709838 L11.8961001,5.78709838 C11.833294,5.69616389 11.7943484,5.58666723 11.7943484,5.46861613 C11.7943484,5.17758163 12.0303034,4.94147943 12.3215035,4.94147943 Z" id="形状结合" fill="#D2CFCA" fill-rule="nonzero"></path>
                </g>
            </g>
        </g>
    </g>
</svg>